<mxfile host="app.diagrams.net" modified="2020-10-05T12:51:12.364Z" agent="5.0 (Windows NT 10.0; WOW64) AppleWebKit/537.36 (KHTML, like Gecko) Chrome/85.0.4183.121 Safari/537.36 OPR/71.0.3770.198" etag="gTtH3IxCWnfDUtfbWlaV" version="13.7.7" type="github">
  <diagram id="pTrQ50eDw9FzKWcm3t64" name="Page-1">
    <mxGraphModel dx="998" dy="1717" grid="1" gridSize="10" guides="1" tooltips="1" connect="1" arrows="1" fold="1" page="1" pageScale="1" pageWidth="827" pageHeight="1169" math="0" shadow="0">
      <root>
        <mxCell id="0" />
        <mxCell id="1" parent="0" />
        <mxCell id="zvcePPT68WXCEgsk48s8-1" value="COLLEGE" style="rounded=0;whiteSpace=wrap;html=1;" vertex="1" parent="1">
          <mxGeometry x="230" y="180" width="120" height="60" as="geometry" />
        </mxCell>
        <mxCell id="zvcePPT68WXCEgsk48s8-2" value="WORKS FOR" style="shape=rhombus;perimeter=rhombusPerimeter;whiteSpace=wrap;html=1;align=center;" vertex="1" parent="1">
          <mxGeometry x="500" y="150" width="120" height="60" as="geometry" />
        </mxCell>
        <mxCell id="zvcePPT68WXCEgsk48s8-4" value="DEPT" style="rounded=0;whiteSpace=wrap;html=1;" vertex="1" parent="1">
          <mxGeometry x="600" y="70" width="120" height="60" as="geometry" />
        </mxCell>
        <mxCell id="zvcePPT68WXCEgsk48s8-5" value="COURSE" style="rounded=0;whiteSpace=wrap;html=1;" vertex="1" parent="1">
          <mxGeometry x="370" y="360" width="120" height="60" as="geometry" />
        </mxCell>
        <mxCell id="zvcePPT68WXCEgsk48s8-6" value="INSTRUCTOR" style="rounded=0;whiteSpace=wrap;html=1;" vertex="1" parent="1">
          <mxGeometry x="40" y="25" width="120" height="60" as="geometry" />
        </mxCell>
        <mxCell id="zvcePPT68WXCEgsk48s8-7" value="STUDENT" style="rounded=0;whiteSpace=wrap;html=1;" vertex="1" parent="1">
          <mxGeometry x="450" y="510" width="120" height="60" as="geometry" />
        </mxCell>
        <mxCell id="zvcePPT68WXCEgsk48s8-8" value="CName" style="ellipse;whiteSpace=wrap;html=1;" vertex="1" parent="1">
          <mxGeometry x="170" y="100" width="60" height="40" as="geometry" />
        </mxCell>
        <mxCell id="zvcePPT68WXCEgsk48s8-9" value="COffice" style="ellipse;whiteSpace=wrap;html=1;" vertex="1" parent="1">
          <mxGeometry x="360" y="100" width="60" height="40" as="geometry" />
        </mxCell>
        <mxCell id="zvcePPT68WXCEgsk48s8-10" value="CPhone" style="ellipse;whiteSpace=wrap;html=1;" vertex="1" parent="1">
          <mxGeometry x="280" y="100" width="60" height="40" as="geometry" />
        </mxCell>
        <mxCell id="zvcePPT68WXCEgsk48s8-11" value="" style="endArrow=none;html=1;entryX=0.5;entryY=1;entryDx=0;entryDy=0;" edge="1" parent="1" target="zvcePPT68WXCEgsk48s8-9">
          <mxGeometry width="50" height="50" relative="1" as="geometry">
            <mxPoint x="350" y="180" as="sourcePoint" />
            <mxPoint x="400" y="240" as="targetPoint" />
          </mxGeometry>
        </mxCell>
        <mxCell id="zvcePPT68WXCEgsk48s8-12" value="" style="endArrow=none;html=1;exitX=0.5;exitY=0;exitDx=0;exitDy=0;entryX=0.5;entryY=1;entryDx=0;entryDy=0;" edge="1" parent="1" source="zvcePPT68WXCEgsk48s8-1" target="zvcePPT68WXCEgsk48s8-10">
          <mxGeometry width="50" height="50" relative="1" as="geometry">
            <mxPoint x="510" y="450" as="sourcePoint" />
            <mxPoint x="560" y="400" as="targetPoint" />
          </mxGeometry>
        </mxCell>
        <mxCell id="zvcePPT68WXCEgsk48s8-13" value="" style="endArrow=none;html=1;exitX=0;exitY=0;exitDx=0;exitDy=0;entryX=0.5;entryY=1;entryDx=0;entryDy=0;" edge="1" parent="1" source="zvcePPT68WXCEgsk48s8-1" target="zvcePPT68WXCEgsk48s8-8">
          <mxGeometry width="50" height="50" relative="1" as="geometry">
            <mxPoint x="510" y="450" as="sourcePoint" />
            <mxPoint x="560" y="400" as="targetPoint" />
          </mxGeometry>
        </mxCell>
        <mxCell id="zvcePPT68WXCEgsk48s8-15" value="DName" style="ellipse;whiteSpace=wrap;html=1;" vertex="1" parent="1">
          <mxGeometry x="550" y="-10" width="60" height="40" as="geometry" />
        </mxCell>
        <mxCell id="zvcePPT68WXCEgsk48s8-16" value="DOffice" style="ellipse;whiteSpace=wrap;html=1;" vertex="1" parent="1">
          <mxGeometry x="700" y="-15" width="60" height="40" as="geometry" />
        </mxCell>
        <mxCell id="zvcePPT68WXCEgsk48s8-17" value="DPhone" style="ellipse;whiteSpace=wrap;html=1;" vertex="1" parent="1">
          <mxGeometry x="630" y="-15" width="60" height="40" as="geometry" />
        </mxCell>
        <mxCell id="zvcePPT68WXCEgsk48s8-18" value="DCode" style="ellipse;whiteSpace=wrap;html=1;" vertex="1" parent="1">
          <mxGeometry x="780" y="-15" width="60" height="40" as="geometry" />
        </mxCell>
        <mxCell id="zvcePPT68WXCEgsk48s8-22" value="" style="endArrow=none;html=1;entryX=0.5;entryY=1;entryDx=0;entryDy=0;exitX=0.25;exitY=0;exitDx=0;exitDy=0;" edge="1" parent="1" source="zvcePPT68WXCEgsk48s8-4" target="zvcePPT68WXCEgsk48s8-17">
          <mxGeometry width="50" height="50" relative="1" as="geometry">
            <mxPoint x="720" y="108" as="sourcePoint" />
            <mxPoint x="779.9999999999998" y="155" as="targetPoint" />
          </mxGeometry>
        </mxCell>
        <mxCell id="zvcePPT68WXCEgsk48s8-23" value="" style="endArrow=none;html=1;exitX=0.5;exitY=0;exitDx=0;exitDy=0;entryX=0.5;entryY=1;entryDx=0;entryDy=0;" edge="1" parent="1" source="zvcePPT68WXCEgsk48s8-4" target="zvcePPT68WXCEgsk48s8-16">
          <mxGeometry width="50" height="50" relative="1" as="geometry">
            <mxPoint x="719.9999999999998" y="95" as="sourcePoint" />
            <mxPoint x="779.9999999999998" y="95" as="targetPoint" />
          </mxGeometry>
        </mxCell>
        <mxCell id="zvcePPT68WXCEgsk48s8-24" value="" style="endArrow=none;html=1;exitX=0;exitY=0;exitDx=0;exitDy=0;entryX=0.5;entryY=1;entryDx=0;entryDy=0;" edge="1" parent="1" source="zvcePPT68WXCEgsk48s8-4" target="zvcePPT68WXCEgsk48s8-15">
          <mxGeometry width="50" height="50" relative="1" as="geometry">
            <mxPoint x="719.9999999999998" y="65" as="sourcePoint" />
            <mxPoint x="779.9999999999998" y="45" as="targetPoint" />
          </mxGeometry>
        </mxCell>
        <mxCell id="zvcePPT68WXCEgsk48s8-25" value="" style="endArrow=none;html=1;entryX=1;entryY=0;entryDx=0;entryDy=0;exitX=0;exitY=1;exitDx=0;exitDy=0;" edge="1" parent="1" source="zvcePPT68WXCEgsk48s8-18" target="zvcePPT68WXCEgsk48s8-4">
          <mxGeometry width="50" height="50" relative="1" as="geometry">
            <mxPoint x="880" y="150" as="sourcePoint" />
            <mxPoint x="930" y="100" as="targetPoint" />
          </mxGeometry>
        </mxCell>
        <mxCell id="zvcePPT68WXCEgsk48s8-26" value="CStartDate" style="ellipse;whiteSpace=wrap;html=1;" vertex="1" parent="1">
          <mxGeometry x="465" y="10" width="60" height="40" as="geometry" />
        </mxCell>
        <mxCell id="zvcePPT68WXCEgsk48s8-27" value="CoName" style="ellipse;whiteSpace=wrap;html=1;" vertex="1" parent="1">
          <mxGeometry x="540" y="290" width="60" height="40" as="geometry" />
        </mxCell>
        <mxCell id="zvcePPT68WXCEgsk48s8-28" value="Cdesc" style="ellipse;whiteSpace=wrap;html=1;" vertex="1" parent="1">
          <mxGeometry x="540" y="400" width="60" height="40" as="geometry" />
        </mxCell>
        <mxCell id="zvcePPT68WXCEgsk48s8-29" value="CCode" style="ellipse;whiteSpace=wrap;html=1;" vertex="1" parent="1">
          <mxGeometry x="540" y="340" width="60" height="40" as="geometry" />
        </mxCell>
        <mxCell id="zvcePPT68WXCEgsk48s8-30" value="" style="endArrow=none;html=1;entryX=0;entryY=0.5;entryDx=0;entryDy=0;exitX=1;exitY=0;exitDx=0;exitDy=0;" edge="1" parent="1" source="zvcePPT68WXCEgsk48s8-5" target="zvcePPT68WXCEgsk48s8-27">
          <mxGeometry width="50" height="50" relative="1" as="geometry">
            <mxPoint x="310" y="470" as="sourcePoint" />
            <mxPoint x="360" y="420" as="targetPoint" />
          </mxGeometry>
        </mxCell>
        <mxCell id="zvcePPT68WXCEgsk48s8-31" value="" style="endArrow=none;html=1;entryX=0;entryY=0.5;entryDx=0;entryDy=0;exitX=1;exitY=0.25;exitDx=0;exitDy=0;" edge="1" parent="1" source="zvcePPT68WXCEgsk48s8-5" target="zvcePPT68WXCEgsk48s8-29">
          <mxGeometry width="50" height="50" relative="1" as="geometry">
            <mxPoint x="310" y="470" as="sourcePoint" />
            <mxPoint x="360" y="420" as="targetPoint" />
          </mxGeometry>
        </mxCell>
        <mxCell id="zvcePPT68WXCEgsk48s8-32" value="" style="endArrow=none;html=1;entryX=0;entryY=0.5;entryDx=0;entryDy=0;exitX=1;exitY=0.5;exitDx=0;exitDy=0;" edge="1" parent="1" source="zvcePPT68WXCEgsk48s8-5" target="zvcePPT68WXCEgsk48s8-28">
          <mxGeometry width="50" height="50" relative="1" as="geometry">
            <mxPoint x="310" y="470" as="sourcePoint" />
            <mxPoint x="360" y="420" as="targetPoint" />
          </mxGeometry>
        </mxCell>
        <mxCell id="zvcePPT68WXCEgsk48s8-33" value="Id" style="ellipse;whiteSpace=wrap;html=1;" vertex="1" parent="1">
          <mxGeometry y="-30" width="60" height="40" as="geometry" />
        </mxCell>
        <mxCell id="zvcePPT68WXCEgsk48s8-34" value="Iname" style="ellipse;whiteSpace=wrap;html=1;" vertex="1" parent="1">
          <mxGeometry x="60" y="-40" width="60" height="40" as="geometry" />
        </mxCell>
        <mxCell id="zvcePPT68WXCEgsk48s8-35" value="Rank" style="ellipse;whiteSpace=wrap;html=1;" vertex="1" parent="1">
          <mxGeometry x="140" y="-40" width="60" height="40" as="geometry" />
        </mxCell>
        <mxCell id="zvcePPT68WXCEgsk48s8-36" value="" style="endArrow=none;html=1;exitX=1;exitY=0;exitDx=0;exitDy=0;entryX=0.5;entryY=1;entryDx=0;entryDy=0;" edge="1" parent="1" source="zvcePPT68WXCEgsk48s8-6" target="zvcePPT68WXCEgsk48s8-35">
          <mxGeometry width="50" height="50" relative="1" as="geometry">
            <mxPoint x="270" y="-15" as="sourcePoint" />
            <mxPoint x="320" y="-65" as="targetPoint" />
          </mxGeometry>
        </mxCell>
        <mxCell id="zvcePPT68WXCEgsk48s8-37" value="" style="endArrow=none;html=1;exitX=0.5;exitY=0;exitDx=0;exitDy=0;entryX=0.5;entryY=1;entryDx=0;entryDy=0;" edge="1" parent="1" source="zvcePPT68WXCEgsk48s8-6" target="zvcePPT68WXCEgsk48s8-34">
          <mxGeometry width="50" height="50" relative="1" as="geometry">
            <mxPoint x="270" y="-15" as="sourcePoint" />
            <mxPoint x="320" y="-65" as="targetPoint" />
          </mxGeometry>
        </mxCell>
        <mxCell id="zvcePPT68WXCEgsk48s8-38" value="" style="endArrow=none;html=1;exitX=0;exitY=0;exitDx=0;exitDy=0;entryX=0.5;entryY=1;entryDx=0;entryDy=0;" edge="1" parent="1" source="zvcePPT68WXCEgsk48s8-6" target="zvcePPT68WXCEgsk48s8-33">
          <mxGeometry width="50" height="50" relative="1" as="geometry">
            <mxPoint x="270" y="-15" as="sourcePoint" />
            <mxPoint x="320" y="-65" as="targetPoint" />
          </mxGeometry>
        </mxCell>
        <mxCell id="zvcePPT68WXCEgsk48s8-39" value="CHAIRMEN OF" style="shape=rhombus;perimeter=rhombusPerimeter;whiteSpace=wrap;html=1;align=center;" vertex="1" parent="1">
          <mxGeometry x="200" y="270" width="120" height="60" as="geometry" />
        </mxCell>
      </root>
    </mxGraphModel>
  </diagram>
</mxfile>
